<svg  viewBox="0 0 97 32" fill="none" xmlns="http://www.w3.org/2000/svg">
<path d="M90.8127 11.9032V13.9794H96.0629V17.9649H90.8127V20.3514H96.7789V24.5755H85.5146V7.6791H96.7789V11.9032H90.8127Z" fill="white"/>
<path d="M77.8671 13.4544C77.6603 13.1203 77.366 12.8657 76.9841 12.6907C76.6023 12.4998 76.1409 12.4044 75.6 12.4044C74.5817 12.4044 73.7942 12.7385 73.2373 13.4067C72.6805 14.059 72.4021 14.9579 72.4021 16.1034C72.4021 17.4239 72.7123 18.4104 73.3328 19.0627C73.9533 19.715 74.9079 20.0411 76.1966 20.0411C77.4217 20.0411 78.4081 19.5479 79.1558 18.5615H74.9318V14.8147H83.547V20.1127C82.8151 21.3696 81.8049 22.4515 80.5161 23.3584C79.2274 24.2493 77.5967 24.6948 75.6238 24.6948C73.8737 24.6948 72.3464 24.3368 71.0418 23.6209C69.7531 22.889 68.7587 21.8708 68.0587 20.5662C67.3745 19.2615 67.0325 17.774 67.0325 16.1034C67.0325 14.4329 67.3745 12.9453 68.0587 11.6407C68.7587 10.3361 69.7531 9.32578 71.0418 8.60984C72.3305 7.87798 73.8419 7.51205 75.5761 7.51205C77.7876 7.51205 79.5854 8.04503 80.9696 9.111C82.3697 10.177 83.197 11.6248 83.4515 13.4544H77.8671Z" fill="white"/>
<path d="M59.8267 22.0219H54.1946L53.3594 24.5755H47.7988L53.9798 7.6791H60.0893L66.2464 24.5755H60.662L59.8267 22.0219ZM58.538 18.0365L57.0107 13.3351L55.4833 18.0365H58.538Z" fill="white"/>
<path d="M46.542 7.6791V24.5755H41.2678V16.1511L38.6665 24.5755H34.1322L31.5309 16.1511V24.5755H26.2329V7.6791H32.7242L36.4471 17.8217L40.0746 7.6791H46.542Z" fill="white"/>
<path d="M23.7802 7.6791V24.5755H18.4822V7.6791H23.7802Z" fill="white"/>
<path d="M10.8347 13.4544C10.6278 13.1203 10.3335 12.8657 9.95167 12.6907C9.56983 12.4998 9.10844 12.4043 8.56751 12.4043C7.54927 12.4043 6.76173 12.7385 6.20488 13.4067C5.64803 14.059 5.36961 14.9579 5.36961 16.1034C5.36961 17.4239 5.67985 18.4103 6.30034 19.0627C6.92083 19.715 7.87542 20.0411 9.16413 20.0411C10.3892 20.0411 11.3756 19.5479 12.1234 18.5615H7.89929V14.8147H16.5145V20.1127C15.7827 21.3696 14.7724 22.4515 13.4837 23.3583C12.195 24.2493 10.5642 24.6948 8.59137 24.6948C6.84128 24.6948 5.31392 24.3368 4.00931 23.6209C2.7206 22.889 1.72623 21.8708 1.02619 20.5661C0.342064 19.2615 0 17.774 0 16.1034C0 14.4329 0.342064 12.9453 1.02619 11.6407C1.72623 10.3361 2.7206 9.32577 4.00931 8.60982C5.29801 7.87797 6.80946 7.51204 8.54364 7.51204C10.7551 7.51204 12.5529 8.04502 13.9371 9.11099C15.3372 10.177 16.1645 11.6248 16.4191 13.4544H10.8347Z" fill="white"/>
<rect x="27.8838" y="4.12968" width="2.18116" height="13.4978" rx="0.763677" transform="rotate(90 27.8838 4.12968)" fill="#121214"/>
<rect x="26.1208" y="2.09667" width="1.65606" height="9.9902" rx="0.763677" transform="rotate(90 26.1208 2.09667)" fill="#121214"/>
<rect x="24.2666" y="-1.33514e-05" width="1.71827" height="6.26852" rx="0.763677" transform="rotate(90 24.2666 -1.33514e-05)" fill="#121214"/>
<rect width="2.18116" height="13.4978" transform="matrix(-5.97022e-08 -1 -1 3.20036e-08 27.8838 28.2839)" fill="#121214"/>
<rect width="1.65606" height="9.9902" transform="matrix(-5.96208e-08 -1 -1 3.20473e-08 26.1208 30.317)" fill="#121214"/>
<rect width="1.306" height="6.26224" transform="matrix(-5.96208e-08 -1 -1 3.20473e-08 24.2661 32)" fill="#121214"/>
</svg>
